<?xml version="1.0" encoding="utf-8"?><svg xmlns="http://www.w3.org/2000/svg" xmlns:xlink="http://www.w3.org/1999/xlink"><symbol viewBox="0 0 45.102 45.102" id="complete" xmlns="http://www.w3.org/2000/svg"><path d="M17.021 44.403c.427.45.995.698 1.601.698a2.18 2.18 0 001.672-.791c8.155-9.735 19.136-21.879 23.248-24.062.906-.482 1.515-1.456 1.515-2.423V1.933C45.056.678 44.137 0 43.272 0c-.314 0-.795.086-1.283.494-3.067 2.556-17.81 15.301-22.718 27.964l-4.691-7.624c-.63-1.02-2.088-1.386-3.122-.783L1.102 26.075c-.599.349-.981.924-1.046 1.579-.065.654.194 1.294.714 1.755 2.139 1.9 12.977 11.543 16.251 14.994zm-4.643-21.419l5.636 9.16c.378.613.96.965 1.597.965.613 0 1.437-.375 1.736-1.432C24.438 20.776 36.79 9.016 42.054 4.387V17.64c-5.462 2.98-18.68 18.348-23.482 24.054-3.429-3.461-11.281-10.499-14.85-13.674l8.656-5.036z"/></symbol><symbol viewBox="0 0 174.239 174.239" id="delete" xmlns="http://www.w3.org/2000/svg"><path d="M87.12 0C39.082 0 0 39.082 0 87.12s39.082 87.12 87.12 87.12 87.12-39.082 87.12-87.12S135.157 0 87.12 0zm0 159.305c-39.802 0-72.185-32.383-72.185-72.185S47.318 14.935 87.12 14.935s72.185 32.383 72.185 72.185-32.384 72.185-72.185 72.185z"/><path d="M120.83 53.414c-2.917-2.917-7.647-2.917-10.559 0L87.12 76.568 63.969 53.414c-2.917-2.917-7.642-2.917-10.559 0s-2.917 7.642 0 10.559l23.151 23.153-23.152 23.154a7.464 7.464 0 000 10.559 7.445 7.445 0 005.28 2.188 7.437 7.437 0 005.28-2.188L87.12 97.686l23.151 23.153a7.445 7.445 0 005.28 2.188 7.442 7.442 0 005.28-2.188 7.464 7.464 0 000-10.559L97.679 87.127l23.151-23.153a7.465 7.465 0 000-10.56z"/></symbol><symbol viewBox="0 0 129 129" id="down-arrow" xmlns="http://www.w3.org/2000/svg"><path d="M121.3 34.6c-1.6-1.6-4.2-1.6-5.8 0l-51 51.1-51.1-51.1c-1.6-1.6-4.2-1.6-5.8 0-1.6 1.6-1.6 4.2 0 5.8l53.9 53.9c.8.8 1.8 1.2 2.9 1.2 1 0 2.1-.4 2.9-1.2l53.9-53.9c1.7-1.6 1.7-4.2.1-5.8z"/></symbol><symbol viewBox="0 0 550.795 550.795" id="email" xmlns="http://www.w3.org/2000/svg"><path d="M501.613 491.782c12.381 0 23.109-4.088 32.229-12.16L377.793 323.567a2878.213 2878.213 0 00-10.801 7.767c-11.678 8.604-21.156 15.318-28.434 20.129-7.277 4.822-16.959 9.737-29.045 14.755-12.094 5.024-23.361 7.528-33.813 7.528h-.612c-10.453 0-21.72-2.503-33.813-7.528-12.093-5.018-21.775-9.933-29.045-14.755-7.277-4.811-16.75-11.524-28.434-20.129a1351.934 1351.934 0 00-10.771-7.809L16.946 479.622c9.119 8.072 19.854 12.16 32.234 12.16h452.433zM31.047 225.299C19.37 217.514 9.015 208.598 0 198.555V435.98l137.541-137.541c-27.516-19.21-62.969-43.562-106.494-73.14zm489.012 0c-41.865 28.336-77.447 52.73-106.75 73.195l137.486 137.492V198.555c-8.815 9.841-19.059 18.751-30.736 26.744z"/><path d="M501.613 59.013H49.181c-15.784 0-27.919 5.33-36.42 15.979C4.253 85.646.006 98.97.006 114.949c0 12.907 5.636 26.892 16.903 41.959 11.267 15.061 23.256 26.891 35.961 35.496 6.965 4.921 27.969 19.523 63.012 43.801a20367.497 20367.497 0 0149.505 34.395 8855.122 8855.122 0 0131.022 21.701c.985.691 2.534 1.799 4.59 3.269 2.215 1.591 5.018 3.61 8.476 6.107 6.659 4.816 12.191 8.709 16.597 11.683 4.4 2.975 9.731 6.298 15.985 9.988 6.249 3.685 12.143 6.456 17.675 8.299 5.533 1.842 10.655 2.766 15.367 2.766h.612c4.711 0 9.834-.924 15.368-2.766 5.531-1.843 11.42-4.608 17.674-8.299 6.248-3.69 11.572-7.02 15.986-9.988 4.406-2.974 9.938-6.866 16.598-11.683 3.451-2.497 6.254-4.517 8.469-6.102a643.575 643.575 0 014.596-3.274c6.684-4.651 17.1-11.892 31.104-21.616 25.482-17.705 63.01-43.764 112.742-78.281 14.957-10.447 27.453-23.054 37.496-37.803 10.025-14.749 15.051-30.22 15.051-46.408 0-13.525-4.873-25.098-14.598-34.737-9.736-9.627-21.265-14.443-34.584-14.443z"/></symbol><symbol viewBox="0 0 512 512" id="fb" xmlns="http://www.w3.org/2000/svg"><path d="M256 375.333c-5.523 0-10 4.477-10 10v.16c0 5.523 4.477 10 10 10s10-4.477 10-10v-.16c0-5.523-4.477-10-10-10z"/><path d="M414 0H98C43.962 0 0 43.962 0 98v316c0 54.038 43.962 98 98 98h158c5.523 0 10-4.477 10-10v-77.5c0-5.523-4.477-10-10-10s-10 4.477-10 10V492H98c-43.009 0-78-34.991-78-78V98c0-43.009 34.991-78 78-78h316c43.009 0 78 34.991 78 78v316c0 43.009-34.991 78-78 78h-64V315.501h57.981a10 10 0 009.95-8.999l7.191-71.455a9.998 9.998 0 00-9.95-11.001H350v-37.521c0-6.791 2.163-9.316 7.981-9.316h56.742c5.523 0 10-4.477 10-10v-69.66c0-5.523-4.477-10-10-10h-74.517c-42.223 0-64.615 18.546-75.964 34.104-15.873 21.758-18.243 47.454-18.243 60.834v42.007h-49c-5.523 0-10 4.477-10 10V305.5c0 5.523 4.477 10 10 10h49V344c0 5.523 4.477 10 10 10s10-4.477 10-10v-38.5c0-5.523-4.477-10-10-10h-49v-51.007h49c5.523 0 10-4.477 10-10v-52.007c0-22.532 7.231-74.938 74.207-74.938h64.517v49.66h-46.742c-12.908 0-27.981 7.678-27.981 29.316v47.521c0 5.523 4.477 10 10 10h64.115l-5.178 51.455H340c-5.523 0-10 4.477-10 10V502c0 5.523 4.477 10 10 10h74c54.038 0 98-43.962 98-98V98c0-54.038-43.962-98-98-98z"/><path d="M58 102.5c-5.523 0-10 4.477-10 10V196c0 5.523 4.477 10 10 10s10-4.477 10-10v-83.5c0-5.523-4.477-10-10-10zm0 126.882c-5.523 0-10 4.477-10 10v.118c0 5.523 4.477 10 10 10s10-4.477 10-10v-.118c0-5.523-4.477-10-10-10z"/></symbol><symbol viewBox="0 0 512 512" id="inst" xmlns="http://www.w3.org/2000/svg"><path d="M362 0H150C67.29 0 0 67.29 0 150v212c0 82.71 67.29 150 150 150h212c82.71 0 150-67.29 150-150V150C512 67.29 444.71 0 362 0zm130 362c0 71.682-58.318 130-130 130H150c-71.682 0-130-58.318-130-130V150C20 78.318 78.318 20 150 20h212c71.682 0 130 58.318 130 130v212z"/><path d="M362 44H150C91.551 44 44 91.551 44 150v212c0 58.449 47.551 106 106 106h61c5.523 0 10-4.477 10-10s-4.477-10-10-10h-61c-47.42 0-86-38.58-86-86V150c0-47.42 38.58-86 86-86h212c47.42 0 86 38.58 86 86v212c0 47.42-38.58 86-86 86h-60.333c-5.523 0-10 4.477-10 10s4.477 10 10 10H362c58.449 0 106-47.551 106-106V150c0-58.449-47.551-106-106-106z"/><path d="M263.07 450.93c-1.86-1.86-4.44-2.93-7.07-2.93s-5.21 1.07-7.07 2.93S246 455.37 246 458s1.07 5.21 2.93 7.07S253.37 468 256 468s5.21-1.07 7.07-2.93c1.86-1.86 2.93-4.44 2.93-7.07s-1.07-5.21-2.93-7.07zm-87.24-295.22c-3.777-4.03-10.104-4.236-14.135-.461l-.443.417c-4.017 3.79-4.201 10.119-.41 14.136a9.97 9.97 0 007.275 3.137 9.966 9.966 0 006.861-2.727l.391-.367c4.03-3.776 4.237-10.105.461-14.135z"/><path d="M256 118c-21.964 0-43.824 5.291-63.217 15.301-4.907 2.533-6.832 8.565-4.299 13.473 2.534 4.907 8.566 6.831 13.473 4.299C218.762 142.398 236.945 138 256 138c65.065 0 118 52.935 118 118s-52.935 118-118 118-118-52.935-118-118c0-20.419 5.295-40.537 15.313-58.178 2.727-4.802 1.045-10.906-3.758-13.634-4.803-2.726-10.906-1.045-13.634 3.758C124.197 208.592 118 232.125 118 256c0 76.093 61.907 138 138 138s138-61.907 138-138-61.907-138-138-138z"/><path d="M256 166c-49.626 0-90 40.374-90 90s40.374 90 90 90 90-40.374 90-90-40.374-90-90-90zm0 160c-38.598 0-70-31.402-70-70s31.402-70 70-70 70 31.402 70 70-31.402 70-70 70zM387.25 86.75c-20.953 0-38 17.047-38 38s17.047 38 38 38 38-17.047 38-38-17.047-38-38-38zm0 56c-9.925 0-18-8.075-18-18s8.075-18 18-18 18 8.075 18 18-8.075 18-18 18z"/></symbol><symbol viewBox="0 0 512 512" id="liin" xmlns="http://www.w3.org/2000/svg"><path d="M446 0H66C29.607 0 0 29.607 0 66v380c0 36.393 29.607 66 66 66h380c36.393 0 66-29.607 66-66V66c0-36.393-29.607-66-66-66zm46 446c0 25.364-20.636 46-46 46H66c-25.364 0-46-20.636-46-46V66c0-25.364 20.636-46 46-46h380c25.364 0 46 20.636 46 46v380z"/><path d="M412.446 210.188c-.001 0-.001-.001 0 0-14.16-16.25-33.791-24.489-58.351-24.489-17.689 0-33.058 3.65-45.683 10.849-6.079 3.47-12.121 8.055-18.083 13.718v-9.537c0-5.523-4.478-10-10-10h-72.805c-5.522 0-10 4.477-10 10v222.519c0 5.523 4.478 10 10 10h72.268c5.522 0 10-4.477 10-10V297.061c0-16.801 12.339-30.639 28.092-31.503l2.549-.14c6.168-.332 12.128 1.889 16.76 6.274 5.039 4.769 7.929 11.626 7.929 18.813v132.742c0 5.523 4.478 10 10 10h68.128c5.522 0 10-4.477 10-10.002V281.814c0-31.679-7-55.778-20.804-71.626zm.804 203.059h-48.129V290.505c0-12.656-5.168-24.807-14.18-33.338-8.663-8.2-19.892-12.367-31.605-11.719l-2.549.14c-26.352 1.446-46.995 24.056-46.995 51.473v116.185h-52.268V210.728h52.805v26.248a10 10 0 0018.058 5.923c9.996-13.597 20.069-23.348 29.937-28.979 9.565-5.455 21.6-8.221 35.771-8.221 18.783 0 32.936 5.766 43.27 17.627l-.001-.001c10.541 12.102 15.886 31.781 15.886 58.491v131.431zM165.879 190.729H93.074c-5.522 0-10 4.477-10 10V284c0 5.523 4.478 10 10 10s10-4.477 10-10v-73.271h52.805v202.518h-52.805V369c0-5.523-4.478-10-10-10s-10 4.477-10 10v54.247c0 5.523 4.478 10 10 10h72.805c5.522 0 10-4.477 10-10V200.729c0-5.523-4.478-10-10-10z"/><path d="M100.149 321.93a10.096 10.096 0 00-7.08-2.93c-2.63 0-5.21 1.07-7.069 2.93-1.861 1.86-2.931 4.44-2.931 7.07s1.071 5.21 2.931 7.07a10.072 10.072 0 007.069 2.93c2.641 0 5.211-1.07 7.08-2.93 1.861-1.86 2.931-4.44 2.931-7.07s-1.071-5.21-2.931-7.07zm29.328-243.177c-27.971 0-50.727 22.756-50.727 50.727s22.756 50.727 50.727 50.727 50.728-22.756 50.728-50.727-22.756-50.727-50.728-50.727zm0 81.454c-16.943 0-30.727-13.784-30.727-30.727s13.785-30.727 30.727-30.727c16.943 0 30.728 13.784 30.728 30.727s-13.785 30.727-30.728 30.727zM388.636 48h-81.5c-5.522 0-10 4.477-10 10s4.478 10 10 10h81.5c5.522 0 10-4.477 10-10s-4.478-10-10-10zm-126.881 0h-.119c-5.522 0-10 4.477-10 10s4.478 10 10 10h.119c5.522 0 10-4.477 10-10s-4.478-10-10-10z"/></symbol><symbol viewBox="0 0 430.114 430.114" id="locat" xmlns="http://www.w3.org/2000/svg"><path d="M356.208 107.051c-1.531-5.738-4.64-11.852-6.94-17.205C321.746 23.704 261.611 0 213.055 0 148.054 0 76.463 43.586 66.905 133.427v18.355c0 .766.264 7.647.639 11.089 5.358 42.816 39.143 88.32 64.375 131.136 27.146 45.873 55.314 90.999 83.221 136.106 17.208-29.436 34.354-59.259 51.17-87.933 4.583-8.415 9.903-16.825 14.491-24.857 3.058-5.348 8.9-10.696 11.569-15.672 27.145-49.699 70.838-99.782 70.838-149.104v-20.262c.001-5.347-6.627-24.081-7-25.234zm-141.963 92.142c-19.107 0-40.021-9.554-50.344-35.939-1.538-4.2-1.414-12.617-1.414-13.388v-11.852c0-33.636 28.56-48.932 53.406-48.932 30.588 0 54.245 24.472 54.245 55.06 0 30.587-25.305 55.051-55.893 55.051z"/></symbol><symbol viewBox="0 0 510 510" id="minus" xmlns="http://www.w3.org/2000/svg"><path d="M255 0C114.75 0 0 114.75 0 255s114.75 255 255 255 255-114.75 255-255S395.25 0 255 0zm0 459c-112.2 0-204-91.8-204-204S142.8 51 255 51s204 91.8 204 204-91.8 204-204 204zM153 280.5h204v-51H153v51z"/></symbol><symbol viewBox="0 0 477.175 477.175" id="next" xmlns="http://www.w3.org/2000/svg"><path d="M145.188 238.575l215.5-215.5c5.3-5.3 5.3-13.8 0-19.1s-13.8-5.3-19.1 0l-225.1 225.1c-5.3 5.3-5.3 13.8 0 19.1l225.1 225c2.6 2.6 6.1 4 9.5 4s6.9-1.3 9.5-4c5.3-5.3 5.3-13.8 0-19.1l-215.4-215.5z"/></symbol><symbol viewBox="0 0 284.929 284.929" id="next_screen" xmlns="http://www.w3.org/2000/svg"><path d="M135.899 167.877c1.902 1.902 4.093 2.851 6.567 2.851s4.661-.948 6.562-2.851L282.082 34.829c1.902-1.903 2.847-4.093 2.847-6.567s-.951-4.665-2.847-6.567L267.808 7.417c-1.902-1.903-4.093-2.853-6.57-2.853-2.471 0-4.661.95-6.563 2.853L142.466 119.622 30.262 7.417c-1.903-1.903-4.093-2.853-6.567-2.853-2.475 0-4.665.95-6.567 2.853L2.856 21.695C.95 23.597 0 25.784 0 28.262c0 2.478.953 4.665 2.856 6.567l133.043 133.048z"/><path d="M267.808 117.053c-1.902-1.903-4.093-2.853-6.57-2.853-2.471 0-4.661.95-6.563 2.853L142.466 229.257 30.262 117.05c-1.903-1.903-4.093-2.853-6.567-2.853-2.475 0-4.665.95-6.567 2.853L2.856 131.327C.95 133.23 0 135.42 0 137.893c0 2.474.953 4.665 2.856 6.57l133.043 133.046c1.902 1.903 4.093 2.854 6.567 2.854s4.661-.951 6.562-2.854l133.054-133.046c1.902-1.903 2.847-4.093 2.847-6.565 0-2.474-.951-4.661-2.847-6.567l-14.274-14.278z"/></symbol><symbol viewBox="0 0 348.077 348.077" id="phone-footer" xmlns="http://www.w3.org/2000/svg"><path d="M340.273 275.083l-53.755-53.761c-10.707-10.664-28.438-10.34-39.518.744l-27.082 27.076a792.327 792.327 0 01-5.344-2.973c-17.102-9.476-40.509-22.464-65.14-47.113-24.704-24.701-37.704-48.144-47.209-65.257-1.003-1.813-1.964-3.561-2.913-5.221l18.176-18.149 8.936-8.947c11.097-11.1 11.403-28.826.721-39.521L73.39 8.194c-10.682-10.68-28.421-10.356-39.518.744l-15.15 15.237.414.411c-5.08 6.482-9.325 13.958-12.484 22.02C3.74 54.28 1.927 61.603 1.098 68.941-6 127.785 20.89 181.564 93.866 254.541c100.875 100.868 182.167 93.248 185.674 92.876 7.638-.913 14.958-2.738 22.397-5.627 7.992-3.122 15.463-7.361 21.941-12.43l.331.294 15.348-15.029c11.074-11.098 11.393-28.83.716-39.542z"/></symbol><symbol viewBox="0 0 480.56 480.56" id="phone_top" xmlns="http://www.w3.org/2000/svg"><path d="M365.354 317.9c-15.7-15.5-35.3-15.5-50.9 0-11.9 11.8-23.8 23.6-35.5 35.6-3.2 3.3-5.9 4-9.8 1.8-7.7-4.2-15.9-7.6-23.3-12.2-34.5-21.7-63.4-49.6-89-81-12.7-15.6-24-32.3-31.9-51.1-1.6-3.8-1.3-6.3 1.8-9.4 11.9-11.5 23.5-23.3 35.2-35.1 16.3-16.4 16.3-35.6-.1-52.1-9.3-9.4-18.6-18.6-27.9-28-9.6-9.6-19.1-19.3-28.8-28.8-15.7-15.3-35.3-15.3-50.9.1-12 11.8-23.5 23.9-35.7 35.5-11.3 10.7-17 23.8-18.2 39.1-1.9 24.9 4.2 48.4 12.8 71.3 17.6 47.4 44.4 89.5 76.9 128.1 43.9 52.2 96.3 93.5 157.6 123.3 27.6 13.4 56.2 23.7 87.3 25.4 21.4 1.2 40-4.2 54.9-20.9 10.2-11.4 21.7-21.8 32.5-32.7 16-16.2 16.1-35.8.2-51.8-19-19.1-38.1-38.1-57.2-57.1zm-19.1-79.7l36.9-6.3c-5.8-33.9-21.8-64.6-46.1-89-25.7-25.7-58.2-41.9-94-46.9l-5.2 37.1c27.7 3.9 52.9 16.4 72.8 36.3 18.8 18.8 31.1 42.6 35.6 68.8zm57.7-160.4c-42.6-42.6-96.5-69.5-156-77.8l-5.2 37.1c51.4 7.2 98 30.5 134.8 67.2 34.9 34.9 57.8 79 66.1 127.5l36.9-6.3c-9.7-56.2-36.2-107.2-76.6-147.7z"/></symbol><symbol viewBox="0 0 510 510" id="plus" xmlns="http://www.w3.org/2000/svg"><path d="M280.5 127.5h-51v102h-102v51h102v102h51v-102h102v-51h-102v-102zM255 0C114.75 0 0 114.75 0 255s114.75 255 255 255 255-114.75 255-255S395.25 0 255 0zm0 459c-112.2 0-204-91.8-204-204S142.8 51 255 51s204 91.8 204 204-91.8 204-204 204z"/></symbol><symbol viewBox="0 0 477.175 477.175" id="prev" xmlns="http://www.w3.org/2000/svg"><path d="M360.731 229.075l-225.1-225.1c-5.3-5.3-13.8-5.3-19.1 0s-5.3 13.8 0 19.1l215.5 215.5-215.5 215.5c-5.3 5.3-5.3 13.8 0 19.1 2.6 2.6 6.1 4 9.5 4 3.4 0 6.9-1.3 9.5-4l225.1-225.1c5.3-5.2 5.3-13.8.1-19z"/></symbol><symbol viewBox="0 0 512 512" id="vk" xmlns="http://www.w3.org/2000/svg"><path d="M434.79 342.767l-5.074-8.289a218.599 218.599 0 00-35.67-44.145l-16.965-16.154a4.438 4.438 0 01-.575-5.797l23.164-33.008a145.059 145.059 0 009.163-14.899l19.794-37.037c3.45-6.454 3.266-14.057-.494-20.337-3.758-6.279-10.373-10.034-17.691-10.042l-42.845-.049h-.026a22.62 22.62 0 00-20.712 13.529l-4.538 10.34a255.708 255.708 0 01-46.988 71.525v-75.487c0-10.982-8.935-19.917-19.916-19.917h-60.681c-9.964 0-18.069 8.106-18.069 18.07 0 3.805 1.173 7.45 3.391 10.538l4.246 5.915a33.7 33.7 0 016.363 19.772v55.159c-7.483-8.691-16.594-20.493-24.307-34.062-11.811-20.78-20.277-45.011-24.272-57.606C158.713 160.148 148.949 153 137.79 153H94.396c-6.124 0-11.756 2.8-15.456 7.682-3.697 4.883-4.866 11.065-3.205 16.962l8.095 28.73a264.6 264.6 0 0020.27 50.957c2.562 4.891 8.604 6.78 13.498 4.217 4.893-2.563 6.78-8.607 4.217-13.499a244.683 244.683 0 01-18.734-47.098L95.206 173h42.585a5.47 5.47 0 015.233 3.833c4.233 13.343 13.233 39.07 25.95 61.441 10.434 18.356 23.093 33.648 31.877 43.244 4.812 5.257 12.216 6.988 18.862 4.404 6.654-2.585 10.954-8.868 10.954-16.005v-62.622c0-11.349-3.499-22.22-10.116-31.437L218.498 173h56.835v80.195a17.087 17.087 0 007.881 14.434 17.082 17.082 0 0016.403 1.175l4.123-1.882a15.946 15.946 0 005.018-3.594 275.711 275.711 0 0051.878-78.413l4.538-10.34a2.616 2.616 0 012.397-1.566h.003l42.845.049c.146 0 .367.001.555.315.189.315.084.509.016.638l-19.794 37.036a125.189 125.189 0 01-7.896 12.838l-23.164 33.008c-7.012 9.992-5.685 23.353 3.154 31.77l16.964 16.154a198.62 198.62 0 0132.406 40.104l5.074 8.289c.122.199.493.806.031 1.631-.462.825-1.174.825-1.407.825h-36.989a17.8 17.8 0 01-12.692-5.361l-36.986-38.03a63.48 63.48 0 00-31.988-17.797c-5.473-1.203-11.123.122-15.493 3.637s-6.876 8.746-6.876 14.353v37.366a5.84 5.84 0 01-5.833 5.833c-28.662 0-56.985-9.59-79.752-27.003a244.9 244.9 0 01-26.001-22.994c-3.866-3.942-10.197-4.007-14.142-.14-3.944 3.867-4.006 10.199-.14 14.142a264.86 264.86 0 0028.132 24.878c26.235 20.066 58.873 31.117 91.902 31.117 14.244 0 25.833-11.589 25.833-25.833V314.48a43.52 43.52 0 0120.02 11.74l36.986 38.03c7.056 7.255 16.908 11.417 27.03 11.417h36.989a21.631 21.631 0 0018.855-11.05 21.637 21.637 0 00-.423-21.85z"/><path d="M140.056 277.553l-.111-.155c-3.219-4.488-9.465-5.519-13.954-2.3-4.488 3.219-5.518 9.466-2.3 13.954l.068.096 8.17-5.768-8.127 5.827a9.988 9.988 0 008.136 4.174 9.959 9.959 0 005.818-1.874c4.488-3.219 5.518-9.466 2.3-13.954zM204.864 444h-81.5c-5.522 0-10 4.477-10 10s4.478 10 10 10h81.5c5.523 0 10-4.477 10-10s-4.478-10-10-10zm45.5 0h-.119c-5.522 0-10 4.477-10 10s4.478 10 10 10h.119c5.523 0 10-4.477 10-10s-4.478-10-10-10z"/><path d="M446 0H66C29.607 0 0 29.607 0 66v380c0 36.393 29.607 66 66 66h380c36.393 0 66-29.607 66-66V66c0-36.393-29.607-66-66-66zm46 446c0 25.364-20.636 46-46 46H66c-25.364 0-46-20.636-46-46V66c0-25.364 20.636-46 46-46h380c25.364 0 46 20.636 46 46v380z"/></symbol></svg>